<?xml version="1.0" encoding="iso-8859-1"?>
<!-- Generator: Adobe Illustrator 23.0.3, SVG Export Plug-In . SVG Version: 6.00 Build 0)  -->
<svg version="1.1" id="Layer_1" xmlns="http://www.w3.org/2000/svg" xmlns:xlink="http://www.w3.org/1999/xlink" x="0px" y="0px"
	 viewBox="0 0 32 32" xml:space="preserve">
<g>
	<path d="M15.359,3.012c0.393-0.016,0.786-0.015,1.179-0.005c0.189,0.007,0.377,0.021,0.566,0.038
		c0.258,0.014,0.513,0.054,0.769,0.085c0.154,0.023,0.306,0.051,0.459,0.077c0.414,0.07,0.821,0.172,1.226,0.283
		c0.642,0.182,1.268,0.415,1.875,0.692c1.392,0.642,2.67,1.531,3.755,2.615c1.05,1.053,1.925,2.283,2.563,3.627
		c0.059,0.136,0.128,0.267,0.182,0.406c0.147,0.337,0.283,0.68,0.397,1.029c0.217,0.646,0.385,1.31,0.494,1.983
		c0.03,0.165,0.055,0.33,0.073,0.496c0.029,0.201,0.049,0.403,0.062,0.606c0.044,0.437,0.044,0.877,0.04,1.316
		c-0.004,0.261-0.014,0.521-0.039,0.781c-0.013,0.177-0.027,0.354-0.051,0.53c-0.02,0.143-0.033,0.286-0.058,0.428
		c-0.047,0.27-0.089,0.54-0.15,0.808c-0.215,0.97-0.54,1.916-0.97,2.811c-0.827,1.721-2.035,3.259-3.518,4.462
		c-0.907,0.742-1.911,1.356-2.983,1.827c-0.326,0.14-0.653,0.275-0.989,0.388c-0.184,0.061-0.367,0.125-0.554,0.178
		c-0.347,0.099-0.697,0.191-1.05,0.262c-0.244,0.048-0.49,0.091-0.735,0.13c-0.275,0.035-0.55,0.075-0.828,0.091
		c-0.351,0.035-0.703,0.044-1.055,0.042c-0.358,0.002-0.716-0.006-1.072-0.041c-0.172-0.012-0.344-0.026-0.515-0.05
		c-0.143-0.02-0.286-0.033-0.428-0.058c-0.216-0.038-0.432-0.072-0.647-0.116c-0.223-0.049-0.445-0.099-0.665-0.158
		c-0.452-0.114-0.895-0.263-1.332-0.426c-0.55-0.216-1.09-0.459-1.606-0.747c-0.112-0.06-0.224-0.12-0.333-0.187
		c-0.588-0.345-1.146-0.739-1.673-1.171c-1.818-1.489-3.219-3.482-4.002-5.698c-0.162-0.458-0.299-0.925-0.409-1.399
		C3.255,18.625,3.2,18.297,3.145,17.97c-0.021-0.123-0.032-0.248-0.05-0.372c-0.031-0.208-0.039-0.417-0.061-0.626
		c-0.042-0.496-0.037-0.995-0.027-1.493c0.007-0.184,0.018-0.367,0.037-0.551c0.016-0.166,0.024-0.334,0.048-0.499
		c0.021-0.147,0.034-0.296,0.061-0.442c0.037-0.207,0.068-0.414,0.111-0.62c0.18-0.866,0.444-1.716,0.8-2.526
		c0.06-0.153,0.136-0.3,0.202-0.45c0.422-0.876,0.938-1.707,1.546-2.467c1.048-1.33,2.364-2.447,3.841-3.275
		c0.393-0.218,0.795-0.422,1.209-0.596c0.829-0.361,1.699-0.626,2.585-0.806C13.631,3.212,13.816,3.182,14,3.15
		c0.137-0.025,0.277-0.037,0.415-0.057c0.185-0.028,0.372-0.036,0.558-0.055C15.102,3.026,15.231,3.02,15.359,3.012 M15.806,4.004
		c-0.496,0.005-0.99,0.053-1.481,0.12c-0.392,0.058-0.78,0.14-1.166,0.231c-0.747,0.188-1.476,0.448-2.173,0.775
		C10.424,5.397,9.88,5.704,9.365,6.054C9.14,6.211,8.913,6.366,8.702,6.539C8.429,6.753,8.166,6.978,7.913,7.216
		c-0.135,0.12-0.258,0.252-0.388,0.379c-1.516,1.546-2.602,3.512-3.089,5.623c-0.11,0.453-0.19,0.914-0.238,1.378
		c-0.059,0.478-0.077,0.959-0.076,1.44c0.006,0.384,0.02,0.767,0.066,1.148c0.033,0.382,0.1,0.761,0.172,1.138
		c0.057,0.25,0.109,0.501,0.179,0.747c0.338,1.256,0.886,2.455,1.615,3.532c0.464,0.697,1.009,1.339,1.61,1.921
		c0.874,0.85,1.883,1.56,2.973,2.107c0.391,0.189,0.787,0.369,1.196,0.517c0.271,0.095,0.54,0.192,0.818,0.267
		c0.605,0.173,1.223,0.301,1.847,0.379c0.156,0.016,0.312,0.033,0.468,0.048c0.742,0.058,1.49,0.054,2.231-0.023
		c0.239-0.032,0.479-0.053,0.717-0.096c0.195-0.036,0.391-0.067,0.584-0.113c0.222-0.053,0.445-0.103,0.664-0.165
		c1.423-0.394,2.771-1.059,3.952-1.944c0.848-0.635,1.609-1.384,2.262-2.217c0.175-0.216,0.331-0.446,0.49-0.674
		c0.182-0.272,0.353-0.551,0.516-0.835c0.129-0.238,0.255-0.479,0.373-0.722c0.306-0.647,0.552-1.322,0.739-2.014
		c0.139-0.538,0.255-1.083,0.317-1.636c0.095-0.724,0.104-1.456,0.069-2.183c-0.016-0.209-0.036-0.417-0.054-0.626
		c-0.12-1.025-0.365-2.036-0.742-2.997c-0.32-0.813-0.727-1.592-1.214-2.317c-0.682-1.01-1.517-1.917-2.469-2.677
		c-1.346-1.074-2.926-1.856-4.601-2.26c-0.418-0.104-0.843-0.179-1.269-0.239c-0.21-0.032-0.422-0.044-0.632-0.067
		C16.603,4.005,16.204,3.997,15.806,4.004L15.806,4.004z M10.301,6.855c0.697-0.466,1.472-0.806,2.27-1.058
		c-0.166,0.093-0.338,0.177-0.5,0.277c-0.588,0.35-1.128,0.781-1.593,1.284C10.122,7.747,9.81,8.182,9.587,8.663
		c-0.172,0.36-0.296,0.744-0.36,1.138c-0.049,0.254-0.068,0.514-0.061,0.773c0.007,0.716,0.233,1.42,0.592,2.035
		c0.31,0.536,0.714,1.013,1.172,1.429c0.254,0.229,0.537,0.424,0.784,0.66c0.118,0.115,0.235,0.232,0.337,0.362
		c0.137,0.174,0.256,0.366,0.314,0.582c0.047,0.158,0.035,0.325,0.036,0.488c0.001,0.215-0.002,0.43,0.002,0.645
		c0.007,0.186-0.001,0.372,0.006,0.557c0.004,0.125,0.001,0.25,0.003,0.374c0.008,0.302,0.003,0.604,0.008,0.907
		c0.006,0.153,0.001,0.305,0.007,0.458c0.002,0.085,0.007,0.172-0.002,0.257c-0.048,0.006-0.095,0.009-0.143,0.008
		c-0.576,0-1.147-0.138-1.675-0.363c-0.315-0.142-0.619-0.309-0.896-0.515c-0.301-0.22-0.581-0.47-0.828-0.75
		c-0.342-0.38-0.628-0.807-0.871-1.255c-0.056-0.106-0.117-0.211-0.167-0.321c-0.061-0.138-0.137-0.269-0.192-0.41
		c-0.212-0.507-0.344-1.045-0.424-1.589c-0.026-0.233-0.057-0.465-0.063-0.7c-0.037-0.825,0.044-1.654,0.245-2.454
		c0.111-0.427,0.25-0.848,0.436-1.249C8.177,8.986,8.65,8.306,9.225,7.728C9.554,7.403,9.913,7.108,10.301,6.855z M19.494,5.8
		c0.144,0.039,0.284,0.091,0.424,0.14c0.333,0.122,0.665,0.254,0.981,0.417c0.687,0.338,1.327,0.776,1.878,1.309
		c0.535,0.522,0.982,1.132,1.318,1.8c0.067,0.144,0.138,0.286,0.2,0.433c0.331,0.792,0.524,1.639,0.589,2.494
		c0.021,0.238,0.023,0.476,0.024,0.715c0.004,0.61-0.078,1.219-0.225,1.81c-0.103,0.381-0.228,0.76-0.412,1.11
		c-0.167,0.348-0.35,0.69-0.568,1.009c-0.364,0.549-0.818,1.042-1.353,1.427c-0.549,0.4-1.187,0.683-1.856,0.806
		c-0.184,0.036-0.371,0.057-0.559,0.063c-0.097,0.003-0.195,0.008-0.291-0.005c-0.015-0.113,0-0.226-0.001-0.339
		c-0.002-0.196,0.007-0.391,0.005-0.586c0.01-0.368,0.001-0.736,0.011-1.104c0.002-0.125-0.002-0.25,0.002-0.374
		c0.009-0.266-0.002-0.532,0.007-0.797c0.005-0.157-0.013-0.317,0.027-0.47c0.035-0.131,0.093-0.255,0.162-0.371
		c0.234-0.383,0.58-0.679,0.927-0.957c0.282-0.219,0.549-0.46,0.787-0.725c0.403-0.439,0.743-0.937,0.984-1.482
		c0.131-0.311,0.237-0.634,0.291-0.968c0.045-0.229,0.056-0.463,0.053-0.696c-0.001-0.411-0.073-0.82-0.191-1.215
		c-0.092-0.3-0.224-0.586-0.372-0.862c-0.203-0.363-0.453-0.698-0.732-1.006c-0.521-0.569-1.14-1.045-1.814-1.421
		C19.692,5.902,19.587,5.86,19.494,5.8L19.494,5.8z M14.21,9.224c0.051-0.062,0.104-0.122,0.164-0.177
		c-0.032,0.049-0.067,0.095-0.102,0.14c-0.163,0.203-0.29,0.436-0.369,0.685c-0.046,0.171-0.088,0.346-0.091,0.524
		c-0.004,0.132-0.004,0.266,0.017,0.397c0.059,0.4,0.227,0.778,0.46,1.107c0.105,0.142,0.223,0.276,0.363,0.384
		c0.085,0.067,0.185,0.11,0.28,0.16c0.163,0.088,0.331,0.169,0.475,0.287c0.14,0.11,0.239,0.279,0.231,0.461
		c-0.001,3.862,0,7.363-0.001,11.226c0,0.071-0.004,0.142,0.002,0.212c0.007,0.078,0.043,0.148,0.077,0.218
		c0.045,0.087,0.093,0.175,0.167,0.242c0.045,0.04,0.103,0.073,0.165,0.065c0.079-0.01,0.139-0.071,0.181-0.135
		c0.05-0.079,0.088-0.166,0.12-0.254c0.04-0.112,0.023-0.232,0.028-0.348c0.007-0.211-0.001-0.423,0.007-0.634
		c0.002-0.309,0.002-0.617,0.003-0.926c0.007-0.19,0.002-0.38,0.006-0.569c0.008-0.211-0.001-0.423,0.007-0.634
		c0.002-0.314,0.002-0.628,0.004-0.942c0.007-0.19,0.001-0.38,0.006-0.569c0.007-0.206-0.001-0.412,0.007-0.618
		c0.002-0.314,0.002-0.628,0.003-0.942c0.008-0.207-0.001-0.413,0.01-0.62c0.015,0.075,0.007,0.153,0.012,0.23
		c0.01,0.189,0.022,0.379,0.04,0.568c0.017,0.18,0.023,0.361,0.045,0.541c0.019,0.163,0.027,0.326,0.05,0.488
		c0.03,0.214,0.046,0.43,0.081,0.644c0.077,0.474,0.148,0.949,0.267,1.415c0.059,0.253,0.126,0.504,0.21,0.75
		c0.133,0.414,0.3,0.821,0.54,1.186c0.091,0.138,0.203,0.261,0.32,0.378c0.014,0.013,0.029,0.027,0.046,0.037
		c0.031,0.013,0.069-0.004,0.089-0.03c0.037-0.046,0.061-0.102,0.089-0.154c0.212-0.409,0.429-0.816,0.647-1.222
		c0.037-0.069,0.075-0.137,0.134-0.189c0.092-0.082,0.201-0.141,0.313-0.19c0.151-0.064,0.309-0.115,0.473-0.127
		c0.345-0.032,0.687,0.039,1.025,0.097c0.193,0.03,0.388,0.061,0.583,0.074c0.196,0.005,0.392,0.003,0.588-0.015
		c0.448-0.048,0.891-0.155,1.307-0.328c0.278-0.117,0.548-0.253,0.803-0.416c0.601-0.378,1.125-0.869,1.575-1.416
		c0.061-0.074,0.118-0.152,0.181-0.224c-0.063,0.17-0.14,0.334-0.218,0.497c-0.066,0.152-0.149,0.294-0.224,0.441
		c-0.27,0.505-0.578,0.991-0.93,1.443c-0.211,0.273-0.447,0.527-0.699,0.764c-0.348,0.317-0.738,0.596-1.176,0.774
		c-0.43,0.177-0.907,0.243-1.368,0.172c-0.187-0.03-0.367-0.089-0.546-0.151c-0.146-0.051-0.283-0.125-0.421-0.193
		c-0.18-0.09-0.348-0.2-0.509-0.319c0.142,0.16,0.298,0.307,0.456,0.451c0.224,0.197,0.458,0.383,0.714,0.536
		c0.209,0.128,0.435,0.231,0.673,0.289c0.077,0.019,0.155,0.024,0.233,0.031c-0.066,0.058-0.138,0.107-0.209,0.156
		c-0.504,0.343-1.049,0.622-1.609,0.861c-1.093,0.456-2.263,0.732-3.446,0.804c-0.244,0.013-0.489,0.019-0.733,0.019
		c-0.261-0.006-0.523-0.007-0.782-0.034c-0.587-0.04-1.168-0.143-1.739-0.285c-0.543-0.142-1.077-0.321-1.588-0.553
		c-0.457-0.202-0.897-0.441-1.31-0.723c-0.096-0.069-0.196-0.133-0.281-0.214c0.346-0.062,0.683-0.178,0.995-0.34
		c0.301-0.15,0.576-0.349,0.819-0.58c0.117-0.115,0.225-0.241,0.324-0.372c-0.18,0.112-0.363,0.218-0.557,0.303
		c-0.231,0.113-0.475,0.198-0.724,0.263c-0.3,0.08-0.615,0.091-0.923,0.06c-0.426-0.05-0.831-0.224-1.18-0.471
		c-0.226-0.154-0.431-0.337-0.627-0.527c-0.521-0.533-0.954-1.143-1.345-1.775c-0.207-0.329-0.395-0.668-0.583-1.008
		c-0.055-0.107-0.113-0.212-0.167-0.32c0.149,0.153,0.292,0.313,0.442,0.465c0.471,0.47,0.973,0.914,1.529,1.283
		c0.396,0.257,0.821,0.484,1.287,0.578c0.163,0.038,0.331,0.025,0.496,0.042c0.145,0.015,0.291,0.01,0.437,0.016
		c0.265,0.003,0.53,0.002,0.795-0.008c0.191-0.008,0.381-0.035,0.571-0.057c0.109-0.013,0.215-0.037,0.322-0.063
		c0.203-0.05,0.425-0.05,0.62,0.032c0.25,0.097,0.442,0.296,0.597,0.509c0.113,0.158,0.213,0.326,0.297,0.502
		c0.061,0.127,0.129,0.251,0.186,0.381c0.052,0.117,0.113,0.232,0.179,0.342c0.035,0.053,0.073,0.113,0.137,0.134
		c0.056-0.039,0.09-0.1,0.12-0.159c0.11-0.218,0.179-0.453,0.256-0.684c0.106-0.345,0.198-0.696,0.272-1.049
		c0.116-0.485,0.17-0.981,0.238-1.475c0.029-0.209,0.044-0.419,0.069-0.627c0.046-0.558,0.1-1.115,0.117-1.674
		c0.004-0.097,0.013-0.194,0.013-0.292c0.001-0.228,0.013-0.456,0.012-0.683c-0.001-0.125-0.001-0.25,0-0.374
		c0.003-0.266-0.01-0.171-0.012-0.437c-0.01-0.346-0.037-0.692-0.068-1.037c-0.038-0.308-0.081-0.618-0.164-0.918
		c-0.107-0.406-0.293-0.788-0.514-1.144c-0.166-0.266-0.356-0.518-0.581-0.735c-0.203-0.202-0.45-0.371-0.731-0.443
		c-0.079-0.021-0.16-0.024-0.241-0.034c0.004-0.157,0.037-0.311,0.066-0.464c0.083-0.404,0.199-0.802,0.354-1.185
		c0.08-0.211,0.179-0.414,0.283-0.614C13.737,9.848,13.956,9.521,14.21,9.224L14.21,9.224z M15.849,9.313
		c0.018-0.003,0.037-0.006,0.056-0.01c0.01,0.094,0.005,0.188,0.005,0.281v1.999c-0.001,0.091,0.007,0.183-0.008,0.274
		c-0.019-0.002-0.037-0.003-0.056-0.003c-0.05-0.197-0.09-0.396-0.137-0.593c-0.02-0.08-0.03-0.162-0.056-0.241
		c-0.089-0.013-0.18-0.009-0.27-0.01c-0.265-0.001-0.531,0-0.796-0.001c-0.087-0.001-0.174,0.005-0.261-0.002
		c-0.002-0.02-0.014-0.048,0.008-0.062c0.067-0.034,0.143-0.046,0.213-0.071c0.18-0.06,0.361-0.113,0.54-0.174
		c0.073-0.025,0.152-0.038,0.218-0.081c0.002-0.029,0.001-0.059-0.003-0.088c-0.064-0.029-0.133-0.046-0.2-0.067
		c-0.164-0.054-0.33-0.103-0.493-0.158c-0.094-0.033-0.192-0.052-0.284-0.094c-0.002-0.019-0.004-0.038-0.006-0.057
		c0.267-0.01,0.535,0.003,0.802-0.006c0.176-0.007,0.353,0.004,0.529-0.004c0.006-0.02,0.014-0.04,0.019-0.061
		C15.728,9.827,15.793,9.571,15.849,9.313L15.849,9.313z M16.162,9.303c0.019,0.003,0.038,0.006,0.057,0.01
		c0.051,0.202,0.091,0.407,0.142,0.609c0.019,0.074,0.029,0.151,0.054,0.224c0.133,0.009,0.266-0.001,0.399,0.003
		c0.27,0.006,0.541,0.006,0.812,0.004c0.04-0.001,0.08,0.002,0.12,0.004c-0.002,0.019-0.004,0.038-0.005,0.057
		c-0.095,0.044-0.198,0.066-0.297,0.099c-0.196,0.064-0.392,0.125-0.588,0.187c-0.03,0.009-0.059,0.022-0.088,0.034
		c-0.008,0.029-0.009,0.059-0.006,0.089c0.046,0.025,0.095,0.042,0.145,0.057c0.256,0.08,0.51,0.165,0.767,0.241
		c0.02,0.007,0.041,0.014,0.059,0.026c0.021,0.014,0.012,0.041,0.008,0.062c-0.087,0.007-0.174,0.002-0.261,0.002
		c-0.271,0.001-0.541-0.001-0.813,0.001c-0.084,0.002-0.169-0.001-0.253,0.011c-0.027,0.088-0.038,0.179-0.061,0.268
		c-0.049,0.187-0.08,0.38-0.133,0.565c-0.019,0.001-0.037,0.001-0.056,0.003c-0.015-0.091-0.008-0.182-0.008-0.274V9.584
		C16.157,9.491,16.152,9.397,16.162,9.303L16.162,9.303z M6.411,11.3c0.059-0.113,0.109-0.231,0.177-0.339
		c-0.095,0.396-0.153,0.8-0.19,1.206c-0.042,0.404-0.045,0.812-0.028,1.218c0.055,1.045,0.29,2.088,0.746,3.034
		c0.157,0.314,0.333,0.62,0.55,0.897c0.321,0.392,0.657,0.774,1.04,1.106c0.252,0.215,0.524,0.408,0.815,0.566
		c0.171,0.086,0.341,0.178,0.521,0.245c0.263,0.106,0.534,0.189,0.808,0.259c0.201,0.05,0.408,0.074,0.604,0.142
		c0.262,0.082,0.496,0.242,0.683,0.442c0.258,0.274,0.424,0.622,0.535,0.979c0.052,0.152,0.083,0.31,0.114,0.468
		c0.008,0.039,0.012,0.08,0.008,0.12c-0.341,0.146-0.695,0.265-1.062,0.324c-0.215,0.041-0.435,0.052-0.653,0.057
		c-0.537,0.013-1.073-0.092-1.579-0.268c-0.196-0.074-0.393-0.149-0.578-0.247c-0.423-0.201-0.82-0.456-1.177-0.758
		c-0.153-0.134-0.306-0.269-0.44-0.421c-0.48-0.515-0.854-1.122-1.142-1.764c-0.125-0.291-0.242-0.586-0.334-0.889
		c-0.061-0.207-0.124-0.414-0.171-0.624c-0.039-0.154-0.064-0.312-0.098-0.468c-0.024-0.112-0.036-0.226-0.054-0.34
		c-0.045-0.285-0.067-0.573-0.07-0.861c0.006-0.324,0.013-0.648,0.056-0.97c0.021-0.15,0.035-0.301,0.06-0.451
		c0.051-0.299,0.112-0.596,0.194-0.887C5.907,12.463,6.138,11.871,6.411,11.3L6.411,11.3z M25.477,10.962
		c0.058,0.087,0.1,0.182,0.146,0.276c0.11,0.233,0.222,0.467,0.316,0.707c0.399,0.983,0.645,2.033,0.684,3.095
		c0.001,0.092,0.004,0.185,0.006,0.277c0.007,0.502-0.067,1.001-0.167,1.491c-0.038,0.188-0.081,0.376-0.135,0.56
		c-0.212,0.772-0.524,1.52-0.965,2.19c-0.43,0.659-0.996,1.234-1.669,1.647c-0.3,0.188-0.618,0.348-0.946,0.482
		c-0.303,0.115-0.614,0.211-0.933,0.268c-0.335,0.055-0.677,0.08-1.017,0.064c-0.415-0.025-0.827-0.109-1.217-0.254
		c-0.102-0.042-0.207-0.077-0.306-0.122c-0.011-0.079,0.013-0.157,0.028-0.234c0.061-0.301,0.159-0.595,0.299-0.869
		c0.124-0.236,0.289-0.453,0.496-0.624c0.127-0.107,0.275-0.189,0.428-0.253c0.188-0.079,0.392-0.103,0.589-0.148
		c0.379-0.09,0.753-0.206,1.109-0.367c0.543-0.244,1.033-0.597,1.449-1.02c0.083-0.084,0.169-0.167,0.248-0.255
		c0.177-0.197,0.352-0.397,0.516-0.604c0.392-0.528,0.672-1.132,0.876-1.755c0.083-0.278,0.168-0.556,0.221-0.841
		c0.033-0.15,0.055-0.303,0.08-0.455c0.046-0.319,0.083-0.641,0.088-0.963c0.006-0.349,0.007-0.698-0.028-1.045
		C25.633,11.79,25.574,11.372,25.477,10.962L25.477,10.962z" fill="#FFF38A"/>
</g>
</svg>